<svg xmlns="http://www.w3.org/2000/svg" xmlns:xlink="http://www.w3.org/1999/xlink" xmlns:lucid="lucid" width="1071.64" height="531.22"><g transform="translate(-2479.934623186572 -1096.7175804098292)" lucid:page-tab-id="0_0"><path d="M2990.86 1562.33h246.06v65.6h-246.06z" fill="none"/><use xlink:href="#a" transform="matrix(1,0,0,1,3010.8631417050906,1585.3275804098294) translate(0.4777777777777601 17.266666666666666)"/><use xlink:href="#b" transform="matrix(1,0,0,1,3010.8631417050906,1585.3275804098294) translate(109.39629629629628 17.266666666666666)"/><use xlink:href="#c" transform="matrix(1,0,0,1,3010.8631417050906,1585.3275804098294) translate(144.8925925925926 17.266666666666666)"/><path d="M2896.28 1336.72h238.95v65.6h-238.95z" fill="none"/><use xlink:href="#d" transform="matrix(1,0,0,1,2916.285363927313,1359.7175804098292) translate(0 17.266666666666666)"/><use xlink:href="#e" transform="matrix(1,0,0,1,2916.285363927313,1359.7175804098292) translate(72.2962962962963 17.266666666666666)"/><use xlink:href="#f" transform="matrix(1,0,0,1,2916.285363927313,1359.7175804098292) translate(85.27407407407408 17.266666666666666)"/><use xlink:href="#g" transform="matrix(1,0,0,1,2916.285363927313,1359.7175804098292) translate(107.7925925925926 17.266666666666666)"/><path d="M3326.92 1562.33h224.66v65.6h-224.66z" fill="none"/><use xlink:href="#h" transform="matrix(1,0,0,1,3346.917586149535,1585.3275804098294) translate(0 17.266666666666666)"/><use xlink:href="#i" transform="matrix(1,0,0,1,3346.917586149535,1585.3275804098294) translate(115.97037037037038 17.266666666666666)"/><use xlink:href="#j" transform="matrix(1,0,0,1,3346.917586149535,1585.3275804098294) translate(164.5037037037037 17.266666666666666)"/><path d="M3015.9 1404.83l.03.3.14.92.17.9.22.93.26.93.3.94.35.95.4.95.47.98.53 1 .6 1.04.68 1.07.77 1.12.88 1.15 1 1.22 1.15 1.28 1.32 1.35 1.53 1.43 1.78 1.54 2.1 1.65 2.46 1.8 2.96 1.96 3.58 2.16 4.4 2.4 5.52 2.74 7.05 3.13 9.28 3.67 12.72 4.4 18.48 5.56 30.04 7.64 78.93 16.3 121.93 24.47 30.05 7.66 18.48 5.55 12.7 4.42 9.3 3.66 7.05 3.13 5.52 2.74 4.4 2.42 3.6 2.17 2.94 1.96 2.48 1.78 2.1 1.66 1.76 1.53 1.53 1.44 1.33 1.36 1.15 1.27 1 1.2.9 1.17.76 1.1.68 1.08.6 1.04.53 1 .46 1 .4.95.35.94.3.95.27.92.2.92.2.9.12.93.03.3" stroke="#635dff" stroke-width="5" stroke-linejoin="round" fill="none"/><path d="M3018.28 1404.84l-4.94.1-.06-2.6h4.95zM3441.72 1562.33h-4.95v-2.57h4.95z" stroke="#635dff" stroke-width=".05" fill="#635dff"/><path d="M3015.76 1179.22v155" stroke="#635dff" stroke-width="5" stroke-linejoin="round" fill="none"/><path d="M3018.23 1179.28h-4.95v-2.56h4.95zM3018.23 1336.72h-4.95v-2.57h4.95z" stroke="#635dff" stroke-width=".05" fill="#635dff"/><path d="M2809.7 1136.72a40 40 0 0 1 40-40h332.1a40 40 0 0 1 40 40 40 40 0 0 1-40 40h-332.1a40 40 0 0 1-40-40z" fill="#fff"/><use xlink:href="#k" transform="matrix(1,0,0,1,2809.707586149535,1096.7175804098292) translate(16.45555555555552 44.266666666666666)"/><use xlink:href="#l" transform="matrix(1,0,0,1,2809.707586149535,1096.7175804098292) translate(152.6333333333333 44.266666666666666)"/><use xlink:href="#m" transform="matrix(1,0,0,1,2809.707586149535,1096.7175804098292) translate(182.26296296296294 44.266666666666666)"/><use xlink:href="#n" transform="matrix(1,0,0,1,2809.707586149535,1096.7175804098292) translate(316.0111111111111 44.266666666666666)"/><use xlink:href="#o" transform="matrix(1,0,0,1,2809.707586149535,1096.7175804098292) translate(333.7888888888889 44.266666666666666)"/><path d="M2479.93 1562.33h420.93v65.6h-420.93z" fill="none"/><use xlink:href="#p" transform="matrix(1,0,0,1,2499.934623186572,1585.3275804098294) translate(0.04074074074071632 17.266666666666666)"/><use xlink:href="#q" transform="matrix(1,0,0,1,2499.934623186572,1585.3275804098294) translate(113.64074074074072 17.266666666666666)"/><use xlink:href="#n" transform="matrix(1,0,0,1,2499.934623186572,1585.3275804098294) translate(193.93703703703704 17.266666666666666)"/><use xlink:href="#r" transform="matrix(1,0,0,1,2499.934623186572,1585.3275804098294) translate(211.71481481481482 17.266666666666666)"/><use xlink:href="#s" transform="matrix(1,0,0,1,2499.934623186572,1585.3275804098294) translate(298.11481481481485 17.266666666666666)"/><path d="M3015.8 1404.83l.04 1.47.23 3.72.37 3.53.5 3.36.6 3.23.74 3.1.84 3.02.96 2.94 1.07 2.87 1.2 2.85 1.33 2.83 1.48 2.84 1.66 2.85 1.85 2.92 2.1 3 2.38 3.15 2.76 3.34 3.3 3.64 4.05 4.14 5.45 5.1 9.85 8.44 22.4 18.73 5.45 5.12 4.05 4.14 3.3 3.64 2.75 3.34 2.4 3.14 2.08 3 1.85 2.92 1.66 2.87 1.47 2.84 1.33 2.84 1.2 2.84 1.07 2.9.95 2.92.85 3.02.72 3.1.6 3.22.5 3.36.37 3.53.24 3.73.04 1.47" stroke="#635dff" stroke-width="5" stroke-linejoin="round" fill="none"/><path d="M3018.28 1404.84l-4.94.1-.06-2.6h4.95zM3116.36 1562.33h-4.95v-2.57h4.96z" stroke="#635dff" stroke-width=".05" fill="#635dff"/><path d="M3015.65 1404.83l-.12 1.12-.17 1.17-.23 1.17-.27 1.16-.33 1.17-.38 1.18-.44 1.2-.5 1.2-.57 1.2-.65 1.26-.74 1.28-.83 1.3-.94 1.37-1.07 1.42-1.22 1.47-1.4 1.53-1.58 1.62-1.83 1.7-2.12 1.84-2.48 1.96-2.93 2.12-3.5 2.32-4.2 2.55-5.2 2.85-6.5 3.22-8.4 3.73-11.27 4.45-16.12 5.58-26.47 7.93-146.67 38.77-16.1 5.6-11.28 4.43-8.4 3.73-6.5 3.23-5.2 2.85-4.2 2.56-3.5 2.3-2.93 2.14-2.5 1.96-2.1 1.83-1.84 1.7-1.6 1.63-1.38 1.54-1.22 1.47-1.07 1.4-.95 1.36-.83 1.32-.74 1.27-.65 1.24-.58 1.22-.5 1.2-.44 1.2-.38 1.17-.32 1.16-.28 1.16-.22 1.17-.18 1.18-.1 1.13" stroke="#635dff" stroke-width="5" stroke-linejoin="round" fill="none"/><path d="M3018.18 1404.94l-4.95-.1.05-2.5h4.95zM2692.87 1559.76v2.57h-4.95v-2.57z" stroke="#635dff" stroke-width=".05" fill="#635dff"/><path d="M2990.86 1562.33h246.06v65.6h-246.06z" fill="none"/><use xlink:href="#a" transform="matrix(1,0,0,1,3010.8631417050906,1585.3275804098294) translate(0.4777777777777601 17.266666666666666)"/><use xlink:href="#b" transform="matrix(1,0,0,1,3010.8631417050906,1585.3275804098294) translate(109.39629629629628 17.266666666666666)"/><use xlink:href="#c" transform="matrix(1,0,0,1,3010.8631417050906,1585.3275804098294) translate(144.8925925925926 17.266666666666666)"/><path d="M2896.28 1336.72h238.95v65.6h-238.95z" fill="none"/><use xlink:href="#d" transform="matrix(1,0,0,1,2916.285363927313,1359.7175804098292) translate(0 17.266666666666666)"/><use xlink:href="#e" transform="matrix(1,0,0,1,2916.285363927313,1359.7175804098292) translate(72.2962962962963 17.266666666666666)"/><use xlink:href="#f" transform="matrix(1,0,0,1,2916.285363927313,1359.7175804098292) translate(85.27407407407408 17.266666666666666)"/><use xlink:href="#g" transform="matrix(1,0,0,1,2916.285363927313,1359.7175804098292) translate(107.7925925925926 17.266666666666666)"/><path d="M3326.92 1562.33h224.66v65.6h-224.66z" fill="none"/><g><use xlink:href="#h" transform="matrix(1,0,0,1,3346.917586149535,1585.3275804098294) translate(0 17.266666666666666)"/><use xlink:href="#i" transform="matrix(1,0,0,1,3346.917586149535,1585.3275804098294) translate(115.97037037037038 17.266666666666666)"/><use xlink:href="#j" transform="matrix(1,0,0,1,3346.917586149535,1585.3275804098294) translate(164.5037037037037 17.266666666666666)"/></g><path d="M3015.9 1404.83l.03.3.14.92.17.9.22.93.26.93.3.94.35.95.4.95.47.98.53 1 .6 1.04.68 1.07.77 1.12.88 1.15 1 1.22 1.15 1.28 1.32 1.35 1.53 1.43 1.78 1.54 2.1 1.65 2.46 1.8 2.96 1.96 3.58 2.16 4.4 2.4 5.52 2.74 7.05 3.13 9.28 3.67 12.72 4.4 18.48 5.56 30.04 7.64 78.93 16.3 121.93 24.47 30.05 7.66 18.48 5.55 12.7 4.42 9.3 3.66 7.05 3.13 5.52 2.74 4.4 2.42 3.6 2.17 2.94 1.96 2.48 1.78 2.1 1.66 1.76 1.53 1.53 1.44 1.33 1.36 1.15 1.27 1 1.2.9 1.17.76 1.1.68 1.08.6 1.04.53 1 .46 1 .4.95.35.94.3.95.27.92.2.92.2.9.12.93.03.3" stroke="#635dff" stroke-width="5" stroke-linejoin="round" fill="none"/><path d="M3018.28 1404.84l-4.94.1-.06-2.6h4.95zM3441.72 1562.33h-4.95v-2.57h4.95z" stroke="#635dff" stroke-width=".05" fill="#635dff"/><path d="M3015.76 1179.22v155" stroke="#635dff" stroke-width="5" stroke-linejoin="round" fill="none"/><path d="M3018.23 1179.28h-4.95v-2.56h4.95zM3018.23 1336.72h-4.95v-2.57h4.95z" stroke="#635dff" stroke-width=".05" fill="#635dff"/><path d="M2809.7 1136.72a40 40 0 0 1 40-40h332.1a40 40 0 0 1 40 40 40 40 0 0 1-40 40h-332.1a40 40 0 0 1-40-40z" fill="#fff"/><g><use xlink:href="#k" transform="matrix(1,0,0,1,2809.707586149535,1096.7175804098292) translate(16.45555555555552 44.266666666666666)"/><use xlink:href="#l" transform="matrix(1,0,0,1,2809.707586149535,1096.7175804098292) translate(152.6333333333333 44.266666666666666)"/><use xlink:href="#m" transform="matrix(1,0,0,1,2809.707586149535,1096.7175804098292) translate(182.26296296296294 44.266666666666666)"/><use xlink:href="#n" transform="matrix(1,0,0,1,2809.707586149535,1096.7175804098292) translate(316.0111111111111 44.266666666666666)"/><use xlink:href="#o" transform="matrix(1,0,0,1,2809.707586149535,1096.7175804098292) translate(333.7888888888889 44.266666666666666)"/></g><path d="M2479.93 1562.33h420.93v65.6h-420.93z" fill="none"/><g><use xlink:href="#p" transform="matrix(1,0,0,1,2499.934623186572,1585.3275804098294) translate(0.04074074074071632 17.266666666666666)"/><use xlink:href="#q" transform="matrix(1,0,0,1,2499.934623186572,1585.3275804098294) translate(113.64074074074072 17.266666666666666)"/><use xlink:href="#n" transform="matrix(1,0,0,1,2499.934623186572,1585.3275804098294) translate(193.93703703703704 17.266666666666666)"/><use xlink:href="#r" transform="matrix(1,0,0,1,2499.934623186572,1585.3275804098294) translate(211.71481481481482 17.266666666666666)"/><use xlink:href="#s" transform="matrix(1,0,0,1,2499.934623186572,1585.3275804098294) translate(298.11481481481485 17.266666666666666)"/></g><path d="M3015.8 1404.83l.04 1.47.23 3.72.37 3.53.5 3.36.6 3.23.74 3.1.84 3.02.96 2.94 1.07 2.87 1.2 2.85 1.33 2.83 1.48 2.84 1.66 2.85 1.85 2.92 2.1 3 2.38 3.15 2.76 3.34 3.3 3.64 4.05 4.14 5.45 5.1 9.85 8.44 22.4 18.73 5.45 5.12 4.05 4.14 3.3 3.64 2.75 3.34 2.4 3.14 2.08 3 1.85 2.92 1.66 2.87 1.47 2.84 1.33 2.84 1.2 2.84 1.07 2.9.95 2.92.85 3.02.72 3.1.6 3.22.5 3.36.37 3.53.24 3.73.04 1.47" stroke="#635dff" stroke-width="5" stroke-linejoin="round" fill="none"/><path d="M3018.28 1404.84l-4.94.1-.06-2.6h4.95zM3116.36 1562.33h-4.95v-2.57h4.96z" stroke="#635dff" stroke-width=".05" fill="#635dff"/><path d="M3015.65 1404.83l-.12 1.12-.17 1.17-.23 1.17-.27 1.16-.33 1.17-.38 1.18-.44 1.2-.5 1.2-.57 1.2-.65 1.26-.74 1.28-.83 1.3-.94 1.37-1.07 1.42-1.22 1.47-1.4 1.53-1.58 1.62-1.83 1.7-2.12 1.84-2.48 1.96-2.93 2.12-3.5 2.32-4.2 2.55-5.2 2.85-6.5 3.22-8.4 3.73-11.27 4.45-16.12 5.58-26.47 7.93-146.67 38.77-16.1 5.6-11.28 4.43-8.4 3.73-6.5 3.23-5.2 2.85-4.2 2.56-3.5 2.3-2.93 2.14-2.5 1.96-2.1 1.83-1.84 1.7-1.6 1.63-1.38 1.54-1.22 1.47-1.07 1.4-.95 1.36-.83 1.32-.74 1.27-.65 1.24-.58 1.22-.5 1.2-.44 1.2-.38 1.17-.32 1.16-.28 1.16-.22 1.17-.18 1.18-.1 1.13" stroke="#635dff" stroke-width="5" stroke-linejoin="round" fill="none"/><path d="M3018.18 1404.94l-4.95-.1.05-2.5h4.95zM2692.87 1559.76v2.57h-4.95v-2.57z" stroke="#635dff" stroke-width=".05" fill="#635dff"/><defs><path fill="#e81313" d="M205 0l-28-72H64L36 0H1l101-248h38L239 0h-34zm-38-99l-47-123c-12 45-31 82-46 123h93" id="t"/><path fill="#e81313" d="M115-194c55 1 70 41 70 98S169 2 115 4C84 4 66-9 55-30l1 105H24l-1-265h31l2 30c10-21 28-34 59-34zm-8 174c40 0 45-34 45-75s-6-73-45-74c-42 0-51 32-51 76 0 43 10 73 51 73" id="u"/><path fill="#e81313" d="M24 0v-261h32V0H24" id="v"/><path fill="#e81313" d="M24-231v-30h32v30H24zM24 0v-190h32V0H24" id="w"/><path fill="#e81313" d="M96-169c-40 0-48 33-48 73s9 75 48 75c24 0 41-14 43-38l32 2c-6 37-31 61-74 61-59 0-76-41-82-99-10-93 101-131 147-64 4 7 5 14 7 22l-32 3c-4-21-16-35-41-35" id="x"/><path fill="#e81313" d="M141-36C126-15 110 5 73 4 37 3 15-17 15-53c-1-64 63-63 125-63 3-35-9-54-41-54-24 1-41 7-42 31l-33-3c5-37 33-52 76-52 45 0 72 20 72 64v82c-1 20 7 32 28 27v20c-31 9-61-2-59-35zM48-53c0 20 12 33 32 33 41-3 63-29 60-74-43 2-92-5-92 41" id="y"/><path fill="#e81313" d="M96-169c-40 0-48 33-48 73s9 75 48 75c24 0 41-14 43-38l32 2c-6 37-31 61-74 61-59 0-76-41-82-99-10-93 101-131 147-64 4 7 5 14 7 22l-32 3c-4-21-16-35-41-35zm3 187c19-1 33 8 33 26 0 31-30 33-64 32V58c18 2 39 4 41-13 1-15-18-13-34-13L87 0h19" id="z"/><path fill="#e81313" d="M100-194c62-1 85 37 85 99 1 63-27 99-86 99S16-35 15-95c0-66 28-99 85-99zM99-20c44 1 53-31 53-75 0-43-8-75-51-75s-53 32-53 75 10 74 51 75zm66-238c-3 23-9 48-36 47-26-1-65-44-74 0H39c4-23 8-48 36-47s64 44 74 0h16" id="A"/><path fill="#e81313" d="M100-194c63 0 86 42 84 106H49c0 40 14 67 53 68 26 1 43-12 49-29l28 8c-11 28-37 45-77 45C44 4 14-33 15-96c1-61 26-98 85-98zm52 81c6-60-76-77-97-28-3 7-6 17-6 28h103" id="B"/><path fill="#e81313" d="M135-143c-3-34-86-38-87 0 15 53 115 12 119 90S17 21 10-45l28-5c4 36 97 45 98 0-10-56-113-15-118-90-4-57 82-63 122-42 12 7 21 19 24 35" id="C"/><g id="a"><use transform="matrix(0.05925925925925927,0,0,0.05925925925925927,0,0)" xlink:href="#t"/><use transform="matrix(0.05925925925925927,0,0,0.05925925925925927,14.222222222222225,0)" xlink:href="#u"/><use transform="matrix(0.05925925925925927,0,0,0.05925925925925927,26.074074074074076,0)" xlink:href="#v"/><use transform="matrix(0.05925925925925927,0,0,0.05925925925925927,30.75555555555556,0)" xlink:href="#w"/><use transform="matrix(0.05925925925925927,0,0,0.05925925925925927,35.437037037037044,0)" xlink:href="#x"/><use transform="matrix(0.05925925925925927,0,0,0.05925925925925927,46.103703703703715,0)" xlink:href="#y"/><use transform="matrix(0.05925925925925927,0,0,0.05925925925925927,57.95555555555557,0)" xlink:href="#z"/><use transform="matrix(0.05925925925925927,0,0,0.05925925925925927,68.62222222222223,0)" xlink:href="#A"/><use transform="matrix(0.05925925925925927,0,0,0.05925925925925927,80.47407407407408,0)" xlink:href="#B"/><use transform="matrix(0.05925925925925927,0,0,0.05925925925925927,92.32592592592593,0)" xlink:href="#C"/></g><path fill="#e81313" d="M210-169c-67 3-38 105-44 169h-31v-121c0-29-5-50-35-48C34-165 62-65 56 0H25l-1-190h30c1 10-1 24 2 32 10-44 99-50 107 0 11-21 27-35 58-36 85-2 47 119 55 194h-31v-121c0-29-5-49-35-48" id="D"/><g id="b"><use transform="matrix(0.05925925925925927,0,0,0.05925925925925927,0,0)" xlink:href="#B"/><use transform="matrix(0.05925925925925927,0,0,0.05925925925925927,11.851851851851853,0)" xlink:href="#D"/></g><path fill="#e81313" d="M185-189c-5-48-123-54-124 2 14 75 158 14 163 119 3 78-121 87-175 55-17-10-28-26-33-46l33-7c5 56 141 63 141-1 0-78-155-14-162-118-5-82 145-84 179-34 5 7 8 16 11 25" id="E"/><path fill="#e81313" d="M85 4C-4 8 31-112 24-190h32v120c0 31 7 50 39 49 72-2 45-101 50-169h31l1 190h-30c-1-10 1-25-2-33-11 22-28 36-60 37zM73-211c8-23 27-35 38-54h36v5l-58 49H73" id="F"/><path fill="#e81313" d="M85-194c31 0 48 13 60 33l-1-100h32l1 261h-30c-2-10 0-23-3-31C134-8 116 4 85 4 32 4 16-35 15-94c0-66 23-100 70-100zm9 24c-40 0-46 34-46 75 0 40 6 74 45 74 42 0 51-32 51-76 0-42-9-74-50-73" id="G"/><g id="c"><use transform="matrix(0.05925925925925927,0,0,0.05925925925925927,0,0)" xlink:href="#E"/><use transform="matrix(0.05925925925925927,0,0,0.05925925925925927,14.222222222222225,0)" xlink:href="#y"/><use transform="matrix(0.05925925925925927,0,0,0.05925925925925927,26.074074074074076,0)" xlink:href="#F"/><use transform="matrix(0.05925925925925927,0,0,0.05925925925925927,37.92592592592593,0)" xlink:href="#G"/><use transform="matrix(0.05925925925925927,0,0,0.05925925925925927,49.777777777777786,0)" xlink:href="#B"/></g><path fill="#e81313" d="M30-248c87 1 191-15 191 75 0 78-77 80-158 76V0H30v-248zm33 125c57 0 124 11 124-50 0-59-68-47-124-48v98" id="H"/><path fill="#e81313" d="M179-190L93 31C79 59 56 82 12 73V49c39 6 53-20 64-50L1-190h34L92-34l54-156h33" id="I"/><path fill="#e81313" d="M59-47c-2 24 18 29 38 22v24C64 9 27 4 27-40v-127H5v-23h24l9-43h21v43h35v23H59v120" id="J"/><path fill="#e81313" d="M106-169C34-169 62-67 57 0H25v-261h32l-1 103c12-21 28-36 61-36 89 0 53 116 60 194h-32v-121c2-32-8-49-39-48" id="K"/><path fill="#e81313" d="M100-194c62-1 85 37 85 99 1 63-27 99-86 99S16-35 15-95c0-66 28-99 85-99zM99-20c44 1 53-31 53-75 0-43-8-75-51-75s-53 32-53 75 10 74 51 75" id="L"/><path fill="#e81313" d="M117-194c89-4 53 116 60 194h-32v-121c0-31-8-49-39-48C34-167 62-67 57 0H25l-1-190h30c1 10-1 24 2 32 11-22 29-35 61-36" id="M"/><g id="d"><use transform="matrix(0.05925925925925927,0,0,0.05925925925925927,0,0)" xlink:href="#H"/><use transform="matrix(0.05925925925925927,0,0,0.05925925925925927,14.222222222222225,0)" xlink:href="#I"/><use transform="matrix(0.05925925925925927,0,0,0.05925925925925927,24.888888888888893,0)" xlink:href="#J"/><use transform="matrix(0.05925925925925927,0,0,0.05925925925925927,30.81481481481482,0)" xlink:href="#K"/><use transform="matrix(0.05925925925925927,0,0,0.05925925925925927,42.66666666666667,0)" xlink:href="#L"/><use transform="matrix(0.05925925925925927,0,0,0.05925925925925927,54.518518518518526,0)" xlink:href="#M"/></g><path fill="#e81313" d="M16-82v-28h88v28H16" id="N"/><use transform="matrix(0.05925925925925927,0,0,0.05925925925925927,0,0)" xlink:href="#N" id="e"/><path fill="#e81313" d="M140-251c81 0 123 46 123 126C263-46 219 4 140 4 59 4 17-45 17-125s42-126 123-126zm0 227c63 0 89-41 89-101s-29-99-89-99c-61 0-89 39-89 99S79-25 140-24" id="O"/><use transform="matrix(0.05925925925925927,0,0,0.05925925925925927,0,0)" xlink:href="#O" id="f"/><path fill="#e81313" d="M30 0v-248h187v28H63v79h144v27H63v87h162V0H30" id="P"/><g id="g"><use transform="matrix(0.05925925925925927,0,0,0.05925925925925927,0,0)" xlink:href="#P"/><use transform="matrix(0.05925925925925927,0,0,0.05925925925925927,14.222222222222225,0)" xlink:href="#C"/><use transform="matrix(0.05925925925925927,0,0,0.05925925925925927,24.888888888888893,0)" xlink:href="#C"/><use transform="matrix(0.05925925925925927,0,0,0.05925925925925927,35.55555555555556,0)" xlink:href="#B"/><use transform="matrix(0.05925925925925927,0,0,0.05925925925925927,47.40740740740741,0)" xlink:href="#M"/><use transform="matrix(0.05925925925925927,0,0,0.05925925925925927,59.25925925925927,0)" xlink:href="#x"/><use transform="matrix(0.05925925925925927,0,0,0.05925925925925927,69.92592592592594,0)" xlink:href="#w"/><use transform="matrix(0.05925925925925927,0,0,0.05925925925925927,74.60740740740742,0)" xlink:href="#y"/><use transform="matrix(0.05925925925925927,0,0,0.05925925925925927,86.45925925925927,0)" xlink:href="#v"/></g><path fill="#e81313" d="M240 0l2-218c-23 76-54 145-80 218h-23L58-218 59 0H30v-248h44l77 211c21-75 51-140 76-211h43V0h-30" id="Q"/><path fill="#e81313" d="M141-36C126-15 110 5 73 4 37 3 15-17 15-53c-1-64 63-63 125-63 3-35-9-54-41-54-24 1-41 7-42 31l-33-3c5-37 33-52 76-52 45 0 72 20 72 64v82c-1 20 7 32 28 27v20c-31 9-61-2-59-35zM48-53c0 20 12 33 32 33 41-3 63-29 60-74-43 2-92-5-92 41zm25-158c8-23 27-35 38-54h36v5l-58 49H73" id="R"/><g id="h"><use transform="matrix(0.05925925925925927,0,0,0.05925925925925927,0,0)" xlink:href="#Q"/><use transform="matrix(0.05925925925925927,0,0,0.05925925925925927,17.718518518518522,0)" xlink:href="#y"/><use transform="matrix(0.05925925925925927,0,0,0.05925925925925927,29.570370370370377,0)" xlink:href="#J"/><use transform="matrix(0.05925925925925927,0,0,0.05925925925925927,35.4962962962963,0)" xlink:href="#B"/><use transform="matrix(0.05925925925925927,0,0,0.05925925925925927,47.348148148148155,0)" xlink:href="#D"/><use transform="matrix(0.05925925925925927,0,0,0.05925925925925927,65.06666666666668,0)" xlink:href="#R"/><use transform="matrix(0.05925925925925927,0,0,0.05925925925925927,76.91851851851852,0)" xlink:href="#J"/><use transform="matrix(0.05925925925925927,0,0,0.05925925925925927,82.84444444444445,0)" xlink:href="#w"/><use transform="matrix(0.05925925925925927,0,0,0.05925925925925927,87.52592592592593,0)" xlink:href="#x"/><use transform="matrix(0.05925925925925927,0,0,0.05925925925925927,98.1925925925926,0)" xlink:href="#y"/></g><path fill="#e81313" d="M114-163C36-179 61-72 57 0H25l-1-190h30c1 12-1 29 2 39 6-27 23-49 58-41v29" id="S"/><g id="i"><use transform="matrix(0.05925925925925927,0,0,0.05925925925925927,0,0)" xlink:href="#u"/><use transform="matrix(0.05925925925925927,0,0,0.05925925925925927,11.851851851851853,0)" xlink:href="#y"/><use transform="matrix(0.05925925925925927,0,0,0.05925925925925927,23.703703703703706,0)" xlink:href="#S"/><use transform="matrix(0.05925925925925927,0,0,0.05925925925925927,30.75555555555556,0)" xlink:href="#y"/></g><path fill="#e81313" d="M33 0v-248h34V0H33" id="T"/><g id="j"><use transform="matrix(0.05925925925925927,0,0,0.05925925925925927,0,0)" xlink:href="#T"/><use transform="matrix(0.05925925925925927,0,0,0.05925925925925927,5.9259259259259265,0)" xlink:href="#t"/></g><path fill="#e81313" d="M63-220v92h138v28H63V0H30v-248h175v28H63" id="U"/><path fill="#e81313" d="M84 4C-5 8 30-112 23-190h32v120c0 31 7 50 39 49 72-2 45-101 50-169h31l1 190h-30c-1-10 1-25-2-33-11 22-28 36-60 37" id="V"/><g id="k"><use transform="matrix(0.05925925925925927,0,0,0.05925925925925927,0,0)" xlink:href="#U"/><use transform="matrix(0.05925925925925927,0,0,0.05925925925925927,12.97777777777778,0)" xlink:href="#V"/><use transform="matrix(0.05925925925925927,0,0,0.05925925925925927,24.829629629629633,0)" xlink:href="#M"/><use transform="matrix(0.05925925925925927,0,0,0.05925925925925927,36.681481481481484,0)" xlink:href="#G"/><use transform="matrix(0.05925925925925927,0,0,0.05925925925925927,48.53333333333334,0)" xlink:href="#y"/><use transform="matrix(0.05925925925925927,0,0,0.05925925925925927,60.38518518518519,0)" xlink:href="#D"/><use transform="matrix(0.05925925925925927,0,0,0.05925925925925927,78.10370370370372,0)" xlink:href="#B"/><use transform="matrix(0.05925925925925927,0,0,0.05925925925925927,89.95555555555556,0)" xlink:href="#M"/><use transform="matrix(0.05925925925925927,0,0,0.05925925925925927,101.80740740740741,0)" xlink:href="#J"/><use transform="matrix(0.05925925925925927,0,0,0.05925925925925927,107.73333333333333,0)" xlink:href="#L"/><use transform="matrix(0.05925925925925927,0,0,0.05925925925925927,119.58518518518518,0)" xlink:href="#C"/></g><g id="l"><use transform="matrix(0.05925925925925927,0,0,0.05925925925925927,0,0)" xlink:href="#G"/><use transform="matrix(0.05925925925925927,0,0,0.05925925925925927,11.851851851851853,0)" xlink:href="#y"/></g><path fill="#e81313" d="M177-190C167-65 218 103 67 71c-23-6-38-20-44-43l32-5c15 47 100 32 89-28v-30C133-14 115 1 83 1 29 1 15-40 15-95c0-56 16-97 71-98 29-1 48 16 59 35 1-10 0-23 2-32h30zM94-22c36 0 50-32 50-73 0-42-14-75-50-75-39 0-46 34-46 75s6 73 46 73" id="W"/><path fill="#e81313" d="M141-36C126-15 110 5 73 4 37 3 15-17 15-53c-1-64 63-63 125-63 3-35-9-54-41-54-24 1-41 7-42 31l-33-3c5-37 33-52 76-52 45 0 72 20 72 64v82c-1 20 7 32 28 27v20c-31 9-61-2-59-35zM48-53c0 20 12 33 32 33 41-3 63-29 60-74-43 2-92-5-92 41zm117-205c-3 23-9 48-36 47-26-1-65-44-74 0H39c4-23 8-48 36-47s64 44 74 0h16" id="X"/><g id="m"><use transform="matrix(0.05925925925925927,0,0,0.05925925925925927,0,0)" xlink:href="#H"/><use transform="matrix(0.05925925925925927,0,0,0.05925925925925927,14.222222222222225,0)" xlink:href="#S"/><use transform="matrix(0.05925925925925927,0,0,0.05925925925925927,21.27407407407408,0)" xlink:href="#L"/><use transform="matrix(0.05925925925925927,0,0,0.05925925925925927,33.125925925925934,0)" xlink:href="#W"/><use transform="matrix(0.05925925925925927,0,0,0.05925925925925927,44.97777777777779,0)" xlink:href="#S"/><use transform="matrix(0.05925925925925927,0,0,0.05925925925925927,52.02962962962964,0)" xlink:href="#y"/><use transform="matrix(0.05925925925925927,0,0,0.05925925925925927,63.881481481481494,0)" xlink:href="#D"/><use transform="matrix(0.05925925925925927,0,0,0.05925925925925927,81.60000000000002,0)" xlink:href="#y"/><use transform="matrix(0.05925925925925927,0,0,0.05925925925925927,93.45185185185187,0)" xlink:href="#z"/><use transform="matrix(0.05925925925925927,0,0,0.05925925925925927,104.11851851851854,0)" xlink:href="#X"/><use transform="matrix(0.05925925925925927,0,0,0.05925925925925927,115.97037037037039,0)" xlink:href="#L"/></g><use transform="matrix(0.05925925925925927,0,0,0.05925925925925927,0,0)" xlink:href="#B" id="n"/><path fill="#e81313" d="M30 0v-248h33v221h125V0H30" id="Y"/><path fill="#e81313" d="M100-194c62-1 85 37 85 99 1 63-27 99-86 99S16-35 15-95c0-66 28-99 85-99zM99-20c44 1 53-31 53-75 0-43-8-75-51-75s-53 32-53 75 10 74 51 75zM76-211c8-23 27-35 38-54h36v5l-58 49H76" id="Z"/><g id="o"><use transform="matrix(0.05925925925925927,0,0,0.05925925925925927,0,0)" xlink:href="#Y"/><use transform="matrix(0.05925925925925927,0,0,0.05925925925925927,11.851851851851853,0)" xlink:href="#Z"/><use transform="matrix(0.05925925925925927,0,0,0.05925925925925927,23.703703703703706,0)" xlink:href="#W"/><use transform="matrix(0.05925925925925927,0,0,0.05925925925925927,35.55555555555556,0)" xlink:href="#w"/><use transform="matrix(0.05925925925925927,0,0,0.05925925925925927,40.23703703703704,0)" xlink:href="#x"/><use transform="matrix(0.05925925925925927,0,0,0.05925925925925927,50.90370370370371,0)" xlink:href="#y"/></g><path fill="#e81313" d="M100-194c63 0 86 42 84 106H49c0 40 14 67 53 68 26 1 43-12 49-29l28 8c-11 28-37 45-77 45C44 4 14-33 15-96c1-61 26-98 85-98zm52 81c6-60-76-77-97-28-3 7-6 17-6 28h103zm-32-149c12 18 30 30 39 51-31 2-38-20-57-30-20 10-27 32-59 30 9-22 29-33 41-51h36" id="aa"/><g id="p"><use transform="matrix(0.05925925925925927,0,0,0.05925925925925927,0,0)" xlink:href="#T"/><use transform="matrix(0.05925925925925927,0,0,0.05925925925925927,5.9259259259259265,0)" xlink:href="#M"/><use transform="matrix(0.05925925925925927,0,0,0.05925925925925927,17.77777777777778,0)" xlink:href="#J"/><use transform="matrix(0.05925925925925927,0,0,0.05925925925925927,23.703703703703706,0)" xlink:href="#B"/><use transform="matrix(0.05925925925925927,0,0,0.05925925925925927,35.55555555555556,0)" xlink:href="#v"/><use transform="matrix(0.05925925925925927,0,0,0.05925925925925927,40.23703703703704,0)" xlink:href="#w"/><use transform="matrix(0.05925925925925927,0,0,0.05925925925925927,44.918518518518525,0)" xlink:href="#W"/><use transform="matrix(0.05925925925925927,0,0,0.05925925925925927,56.77037037037038,0)" xlink:href="#aa"/><use transform="matrix(0.05925925925925927,0,0,0.05925925925925927,68.62222222222223,0)" xlink:href="#M"/><use transform="matrix(0.05925925925925927,0,0,0.05925925925925927,80.47407407407408,0)" xlink:href="#x"/><use transform="matrix(0.05925925925925927,0,0,0.05925925925925927,91.14074074074075,0)" xlink:href="#w"/><use transform="matrix(0.05925925925925927,0,0,0.05925925925925927,95.82222222222224,0)" xlink:href="#y"/></g><path fill="#e81313" d="M101-234c-31-9-42 10-38 44h38v23H63V0H32v-167H5v-23h27c-7-52 17-82 69-68v24" id="ab"/><g id="q"><use transform="matrix(0.05925925925925927,0,0,0.05925925925925927,0,0)" xlink:href="#t"/><use transform="matrix(0.05925925925925927,0,0,0.05925925925925927,14.222222222222225,0)" xlink:href="#S"/><use transform="matrix(0.05925925925925927,0,0,0.05925925925925927,21.27407407407408,0)" xlink:href="#J"/><use transform="matrix(0.05925925925925927,0,0,0.05925925925925927,27.200000000000006,0)" xlink:href="#w"/><use transform="matrix(0.05925925925925927,0,0,0.05925925925925927,31.881481481481487,0)" xlink:href="#ab"/><use transform="matrix(0.05925925925925927,0,0,0.05925925925925927,37.80740740740741,0)" xlink:href="#w"/><use transform="matrix(0.05925925925925927,0,0,0.05925925925925927,42.488888888888894,0)" xlink:href="#x"/><use transform="matrix(0.05925925925925927,0,0,0.05925925925925927,53.155555555555566,0)" xlink:href="#w"/><use transform="matrix(0.05925925925925927,0,0,0.05925925925925927,57.83703703703705,0)" xlink:href="#y"/><use transform="matrix(0.05925925925925927,0,0,0.05925925925925927,69.6888888888889,0)" xlink:href="#v"/></g><g id="r"><use transform="matrix(0.05925925925925927,0,0,0.05925925925925927,0,0)" xlink:href="#Q"/><use transform="matrix(0.05925925925925927,0,0,0.05925925925925927,17.718518518518522,0)" xlink:href="#y"/><use transform="matrix(0.05925925925925927,0,0,0.05925925925925927,29.570370370370377,0)" xlink:href="#x"/><use transform="matrix(0.05925925925925927,0,0,0.05925925925925927,40.23703703703704,0)" xlink:href="#K"/><use transform="matrix(0.05925925925925927,0,0,0.05925925925925927,52.088888888888896,0)" xlink:href="#w"/><use transform="matrix(0.05925925925925927,0,0,0.05925925925925927,56.77037037037038,0)" xlink:href="#M"/><use transform="matrix(0.05925925925925927,0,0,0.05925925925925927,68.62222222222223,0)" xlink:href="#B"/></g><g id="s"><use transform="matrix(0.05925925925925927,0,0,0.05925925925925927,0,0)" xlink:href="#Y"/><use transform="matrix(0.05925925925925927,0,0,0.05925925925925927,11.851851851851853,0)" xlink:href="#B"/><use transform="matrix(0.05925925925925927,0,0,0.05925925925925927,23.703703703703706,0)" xlink:href="#y"/><use transform="matrix(0.05925925925925927,0,0,0.05925925925925927,35.55555555555556,0)" xlink:href="#S"/><use transform="matrix(0.05925925925925927,0,0,0.05925925925925927,42.60740740740741,0)" xlink:href="#M"/><use transform="matrix(0.05925925925925927,0,0,0.05925925925925927,54.45925925925926,0)" xlink:href="#w"/><use transform="matrix(0.05925925925925927,0,0,0.05925925925925927,59.140740740740746,0)" xlink:href="#M"/><use transform="matrix(0.05925925925925927,0,0,0.05925925925925927,70.9925925925926,0)" xlink:href="#W"/></g></defs></g></svg>