<svg xmlns="http://www.w3.org/2000/svg" xmlns:xlink="http://www.w3.org/1999/xlink" xmlns:lucid="lucid" width="1401.97" height="256.83"><g transform="translate(-2804.707586149535 -1008.3025804098295)" lucid:page-tab-id="0_0"><path d="M3785.75 1103.9h246.05v65.62h-246.05z" fill="none"/><use xlink:href="#a" transform="matrix(1,0,0,1,3805.7498083717574,1126.9125804098294) translate(0.4777777777777601 17.266666666666666)"/><use xlink:href="#b" transform="matrix(1,0,0,1,3805.7498083717574,1126.9125804098294) translate(109.39629629629628 17.266666666666666)"/><use xlink:href="#c" transform="matrix(1,0,0,1,3805.7498083717574,1126.9125804098294) translate(144.8925925925926 17.266666666666666)"/><path d="M3386.8 1103.9h238.95v65.62H3386.8z" fill="none"/><use xlink:href="#d" transform="matrix(1,0,0,1,3406.806475038424,1126.9125804098296) translate(0 17.266666666666666)"/><use xlink:href="#e" transform="matrix(1,0,0,1,3406.806475038424,1126.9125804098296) translate(72.2962962962963 17.266666666666666)"/><use xlink:href="#f" transform="matrix(1,0,0,1,3406.806475038424,1126.9125804098296) translate(85.27407407407408 17.266666666666666)"/><use xlink:href="#g" transform="matrix(1,0,0,1,3406.806475038424,1126.9125804098296) translate(107.7925925925926 17.266666666666666)"/><path d="M3785.75 1199.52h224.66v65.6h-224.65z" fill="none"/><use xlink:href="#h" transform="matrix(1,0,0,1,3805.7498083717574,1222.5225804098295) translate(0 17.266666666666666)"/><use xlink:href="#i" transform="matrix(1,0,0,1,3805.7498083717574,1222.5225804098295) translate(115.97037037037038 17.266666666666666)"/><use xlink:href="#j" transform="matrix(1,0,0,1,3805.7498083717574,1222.5225804098295) translate(164.5037037037037 17.266666666666666)"/><path d="M3628.25 1136.77l1.57.03 3.82.24 3.6.38 3.44.5 3.28.63 3.16.74 3.07.85 2.98.97 2.93 1.1 2.9 1.2 2.88 1.36 2.88 1.5 2.92 1.7 2.97 1.88 3.07 2.13 3.2 2.43 3.44 2.85 3.78 3.4 4.36 4.28 5.63 6 28.87 33.12 4.36 4.3 3.78 3.4 3.43 2.83 3.2 2.45 3.08 2.14 2.97 1.87 2.92 1.7 2.88 1.5 2.88 1.35 2.9 1.2 2.92 1.1 3 .97 3.06.85 3.16.74 3.28.62 3.44.5 3.6.38 3.82.24 1.57.04" stroke="#635dff" stroke-width="5" stroke-linejoin="round" fill="none"/><path d="M3628.37 1134.3l-.1 4.94-2.52-.05v-4.96zM3785.75 1229.85v4.95h-2.56v-4.95z" stroke="#635dff" stroke-width=".05" fill="#635dff"/><path d="M3229.3 1136.72h155" stroke="#635dff" stroke-width="5" stroke-linejoin="round" fill="none"/><path d="M3229.37 1139.2h-2.76l.2-2.48-.2-2.48h2.77zM3386.8 1139.2h-2.56v-4.96h2.57z" stroke="#635dff" stroke-width=".05" fill="#635dff"/><path d="M2804.7 1136.72a40 40 0 0 1 40-40h342.1a40 40 0 0 1 40 40 40 40 0 0 1-40 40h-342.1a40 40 0 0 1-40-40z" fill="#fff"/><use xlink:href="#k" transform="matrix(1,0,0,1,2809.707586149535,1101.7175804098295) translate(16.45555555555552 38.94166666666667)"/><use xlink:href="#l" transform="matrix(1,0,0,1,2809.707586149535,1101.7175804098295) translate(152.6333333333333 38.94166666666667)"/><use xlink:href="#m" transform="matrix(1,0,0,1,2809.707586149535,1101.7175804098295) translate(182.26296296296294 38.94166666666667)"/><use xlink:href="#n" transform="matrix(1,0,0,1,2809.707586149535,1101.7175804098295) translate(316.0111111111111 38.94166666666667)"/><use xlink:href="#o" transform="matrix(1,0,0,1,2809.707586149535,1101.7175804098295) translate(333.7888888888889 38.94166666666667)"/><path d="M3785.75 1008.3h420.93v65.6h-420.93z" fill="none"/><use xlink:href="#p" transform="matrix(1,0,0,1,3805.7498083717574,1031.3025804098295) translate(0.04074074074071632 17.266666666666666)"/><use xlink:href="#q" transform="matrix(1,0,0,1,3805.7498083717574,1031.3025804098295) translate(113.64074074074072 17.266666666666666)"/><use xlink:href="#n" transform="matrix(1,0,0,1,3805.7498083717574,1031.3025804098295) translate(193.93703703703704 17.266666666666666)"/><use xlink:href="#r" transform="matrix(1,0,0,1,3805.7498083717574,1031.3025804098295) translate(211.71481481481482 17.266666666666666)"/><use xlink:href="#s" transform="matrix(1,0,0,1,3805.7498083717574,1031.3025804098295) translate(298.11481481481485 17.266666666666666)"/><path d="M3628.25 1136.72h155" stroke="#635dff" stroke-width="5" stroke-linejoin="round" fill="none"/><path d="M3628.32 1139.2h-2.57v-4.96h2.57zM3785.75 1139.2h-2.56v-4.96h2.55z" stroke="#635dff" stroke-width=".05" fill="#635dff"/><path d="M3628.25 1136.67l1.57-.04 3.82-.24 3.6-.38 3.44-.5 3.28-.64 3.16-.74 3.07-.86 2.98-.97 2.93-1.08 2.9-1.2 2.88-1.37 2.88-1.5 2.92-1.7 2.97-1.87 3.07-2.14 3.2-2.44 3.44-2.84 3.78-3.4 4.36-4.3 5.63-6 28.87-33.1 4.36-4.3 3.78-3.4 3.43-2.84 3.2-2.44 3.08-2.13 2.97-1.9 2.92-1.67 2.88-1.5 2.88-1.36 2.9-1.22 2.92-1.1 3-.96 3.06-.86 3.16-.74 3.28-.62 3.44-.5 3.6-.4 3.82-.23 1.57-.04" stroke="#635dff" stroke-width="5" stroke-linejoin="round" fill="none"/><path d="M3628.37 1139.14l-2.62.05v-4.96l2.5-.05zM3785.75 1043.58h-2.56v-4.95h2.55z" stroke="#635dff" stroke-width=".05" fill="#635dff"/><path d="M3785.75 1103.9h246.05v65.62h-246.05z" fill="none"/><use xlink:href="#a" transform="matrix(1,0,0,1,3805.7498083717574,1126.9125804098294) translate(0.4777777777777601 17.266666666666666)"/><use xlink:href="#b" transform="matrix(1,0,0,1,3805.7498083717574,1126.9125804098294) translate(109.39629629629628 17.266666666666666)"/><use xlink:href="#c" transform="matrix(1,0,0,1,3805.7498083717574,1126.9125804098294) translate(144.8925925925926 17.266666666666666)"/><path d="M3386.8 1103.9h238.95v65.62H3386.8z" fill="none"/><use xlink:href="#d" transform="matrix(1,0,0,1,3406.806475038424,1126.9125804098296) translate(0 17.266666666666666)"/><use xlink:href="#e" transform="matrix(1,0,0,1,3406.806475038424,1126.9125804098296) translate(72.2962962962963 17.266666666666666)"/><use xlink:href="#f" transform="matrix(1,0,0,1,3406.806475038424,1126.9125804098296) translate(85.27407407407408 17.266666666666666)"/><use xlink:href="#g" transform="matrix(1,0,0,1,3406.806475038424,1126.9125804098296) translate(107.7925925925926 17.266666666666666)"/><path d="M3785.75 1199.52h224.66v65.6h-224.65z" fill="none"/><g><use xlink:href="#h" transform="matrix(1,0,0,1,3805.7498083717574,1222.5225804098295) translate(0 17.266666666666666)"/><use xlink:href="#i" transform="matrix(1,0,0,1,3805.7498083717574,1222.5225804098295) translate(115.97037037037038 17.266666666666666)"/><use xlink:href="#j" transform="matrix(1,0,0,1,3805.7498083717574,1222.5225804098295) translate(164.5037037037037 17.266666666666666)"/></g><path d="M3628.25 1136.77l1.57.03 3.82.24 3.6.38 3.44.5 3.28.63 3.16.74 3.07.85 2.98.97 2.93 1.1 2.9 1.2 2.88 1.36 2.88 1.5 2.92 1.7 2.97 1.88 3.07 2.13 3.2 2.43 3.44 2.85 3.78 3.4 4.36 4.28 5.63 6 28.87 33.12 4.36 4.3 3.78 3.4 3.43 2.83 3.2 2.45 3.08 2.14 2.97 1.87 2.92 1.7 2.88 1.5 2.88 1.35 2.9 1.2 2.92 1.1 3 .97 3.06.85 3.16.74 3.28.62 3.44.5 3.6.38 3.82.24 1.57.04" stroke="#635dff" stroke-width="5" stroke-linejoin="round" fill="none"/><path d="M3628.37 1134.3l-.1 4.94-2.52-.05v-4.96zM3785.75 1229.85v4.95h-2.56v-4.95z" stroke="#635dff" stroke-width=".05" fill="#635dff"/><path d="M3229.3 1136.72h155" stroke="#635dff" stroke-width="5" stroke-linejoin="round" fill="none"/><path d="M3229.37 1139.2h-2.76l.2-2.48-.2-2.48h2.77zM3386.8 1139.2h-2.56v-4.96h2.57z" stroke="#635dff" stroke-width=".05" fill="#635dff"/><path d="M2804.7 1136.72a40 40 0 0 1 40-40h342.1a40 40 0 0 1 40 40 40 40 0 0 1-40 40h-342.1a40 40 0 0 1-40-40z" fill="#fff"/><g><use xlink:href="#k" transform="matrix(1,0,0,1,2809.707586149535,1101.7175804098295) translate(16.45555555555552 38.94166666666667)"/><use xlink:href="#l" transform="matrix(1,0,0,1,2809.707586149535,1101.7175804098295) translate(152.6333333333333 38.94166666666667)"/><use xlink:href="#m" transform="matrix(1,0,0,1,2809.707586149535,1101.7175804098295) translate(182.26296296296294 38.94166666666667)"/><use xlink:href="#n" transform="matrix(1,0,0,1,2809.707586149535,1101.7175804098295) translate(316.0111111111111 38.94166666666667)"/><use xlink:href="#o" transform="matrix(1,0,0,1,2809.707586149535,1101.7175804098295) translate(333.7888888888889 38.94166666666667)"/></g><path d="M3785.75 1008.3h420.93v65.6h-420.93z" fill="none"/><g><use xlink:href="#p" transform="matrix(1,0,0,1,3805.7498083717574,1031.3025804098295) translate(0.04074074074071632 17.266666666666666)"/><use xlink:href="#q" transform="matrix(1,0,0,1,3805.7498083717574,1031.3025804098295) translate(113.64074074074072 17.266666666666666)"/><use xlink:href="#n" transform="matrix(1,0,0,1,3805.7498083717574,1031.3025804098295) translate(193.93703703703704 17.266666666666666)"/><use xlink:href="#r" transform="matrix(1,0,0,1,3805.7498083717574,1031.3025804098295) translate(211.71481481481482 17.266666666666666)"/><use xlink:href="#s" transform="matrix(1,0,0,1,3805.7498083717574,1031.3025804098295) translate(298.11481481481485 17.266666666666666)"/></g><path d="M3628.25 1136.72h155" stroke="#635dff" stroke-width="5" stroke-linejoin="round" fill="none"/><path d="M3628.32 1139.2h-2.57v-4.96h2.57zM3785.75 1139.2h-2.56v-4.96h2.55z" stroke="#635dff" stroke-width=".05" fill="#635dff"/><path d="M3628.25 1136.67l1.57-.04 3.82-.24 3.6-.38 3.44-.5 3.28-.64 3.16-.74 3.07-.86 2.98-.97 2.93-1.08 2.9-1.2 2.88-1.37 2.88-1.5 2.92-1.7 2.97-1.87 3.07-2.14 3.2-2.44 3.44-2.84 3.78-3.4 4.36-4.3 5.63-6 28.87-33.1 4.36-4.3 3.78-3.4 3.43-2.84 3.2-2.44 3.08-2.13 2.97-1.9 2.92-1.67 2.88-1.5 2.88-1.36 2.9-1.22 2.92-1.1 3-.96 3.06-.86 3.16-.74 3.28-.62 3.44-.5 3.6-.4 3.82-.23 1.57-.04" stroke="#635dff" stroke-width="5" stroke-linejoin="round" fill="none"/><path d="M3628.37 1139.14l-2.62.05v-4.96l2.5-.05zM3785.75 1043.58h-2.56v-4.95h2.55z" stroke="#635dff" stroke-width=".05" fill="#635dff"/><defs><path d="M205 0l-28-72H64L36 0H1l101-248h38L239 0h-34zm-38-99l-47-123c-12 45-31 82-46 123h93" id="t"/><path d="M115-194c55 1 70 41 70 98S169 2 115 4C84 4 66-9 55-30l1 105H24l-1-265h31l2 30c10-21 28-34 59-34zm-8 174c40 0 45-34 45-75s-6-73-45-74c-42 0-51 32-51 76 0 43 10 73 51 73" id="u"/><path d="M24 0v-261h32V0H24" id="v"/><path d="M24-231v-30h32v30H24zM24 0v-190h32V0H24" id="w"/><path d="M96-169c-40 0-48 33-48 73s9 75 48 75c24 0 41-14 43-38l32 2c-6 37-31 61-74 61-59 0-76-41-82-99-10-93 101-131 147-64 4 7 5 14 7 22l-32 3c-4-21-16-35-41-35" id="x"/><path d="M141-36C126-15 110 5 73 4 37 3 15-17 15-53c-1-64 63-63 125-63 3-35-9-54-41-54-24 1-41 7-42 31l-33-3c5-37 33-52 76-52 45 0 72 20 72 64v82c-1 20 7 32 28 27v20c-31 9-61-2-59-35zM48-53c0 20 12 33 32 33 41-3 63-29 60-74-43 2-92-5-92 41" id="y"/><path d="M96-169c-40 0-48 33-48 73s9 75 48 75c24 0 41-14 43-38l32 2c-6 37-31 61-74 61-59 0-76-41-82-99-10-93 101-131 147-64 4 7 5 14 7 22l-32 3c-4-21-16-35-41-35zm3 187c19-1 33 8 33 26 0 31-30 33-64 32V58c18 2 39 4 41-13 1-15-18-13-34-13L87 0h19" id="z"/><path d="M100-194c62-1 85 37 85 99 1 63-27 99-86 99S16-35 15-95c0-66 28-99 85-99zM99-20c44 1 53-31 53-75 0-43-8-75-51-75s-53 32-53 75 10 74 51 75zm66-238c-3 23-9 48-36 47-26-1-65-44-74 0H39c4-23 8-48 36-47s64 44 74 0h16" id="A"/><path d="M100-194c63 0 86 42 84 106H49c0 40 14 67 53 68 26 1 43-12 49-29l28 8c-11 28-37 45-77 45C44 4 14-33 15-96c1-61 26-98 85-98zm52 81c6-60-76-77-97-28-3 7-6 17-6 28h103" id="B"/><path d="M135-143c-3-34-86-38-87 0 15 53 115 12 119 90S17 21 10-45l28-5c4 36 97 45 98 0-10-56-113-15-118-90-4-57 82-63 122-42 12 7 21 19 24 35" id="C"/><g id="a"><use transform="matrix(0.05925925925925927,0,0,0.05925925925925927,0,0)" xlink:href="#t"/><use transform="matrix(0.05925925925925927,0,0,0.05925925925925927,14.222222222222225,0)" xlink:href="#u"/><use transform="matrix(0.05925925925925927,0,0,0.05925925925925927,26.074074074074076,0)" xlink:href="#v"/><use transform="matrix(0.05925925925925927,0,0,0.05925925925925927,30.75555555555556,0)" xlink:href="#w"/><use transform="matrix(0.05925925925925927,0,0,0.05925925925925927,35.437037037037044,0)" xlink:href="#x"/><use transform="matrix(0.05925925925925927,0,0,0.05925925925925927,46.103703703703715,0)" xlink:href="#y"/><use transform="matrix(0.05925925925925927,0,0,0.05925925925925927,57.95555555555557,0)" xlink:href="#z"/><use transform="matrix(0.05925925925925927,0,0,0.05925925925925927,68.62222222222223,0)" xlink:href="#A"/><use transform="matrix(0.05925925925925927,0,0,0.05925925925925927,80.47407407407408,0)" xlink:href="#B"/><use transform="matrix(0.05925925925925927,0,0,0.05925925925925927,92.32592592592593,0)" xlink:href="#C"/></g><path d="M210-169c-67 3-38 105-44 169h-31v-121c0-29-5-50-35-48C34-165 62-65 56 0H25l-1-190h30c1 10-1 24 2 32 10-44 99-50 107 0 11-21 27-35 58-36 85-2 47 119 55 194h-31v-121c0-29-5-49-35-48" id="D"/><g id="b"><use transform="matrix(0.05925925925925927,0,0,0.05925925925925927,0,0)" xlink:href="#B"/><use transform="matrix(0.05925925925925927,0,0,0.05925925925925927,11.851851851851853,0)" xlink:href="#D"/></g><path d="M185-189c-5-48-123-54-124 2 14 75 158 14 163 119 3 78-121 87-175 55-17-10-28-26-33-46l33-7c5 56 141 63 141-1 0-78-155-14-162-118-5-82 145-84 179-34 5 7 8 16 11 25" id="E"/><path d="M85 4C-4 8 31-112 24-190h32v120c0 31 7 50 39 49 72-2 45-101 50-169h31l1 190h-30c-1-10 1-25-2-33-11 22-28 36-60 37zM73-211c8-23 27-35 38-54h36v5l-58 49H73" id="F"/><path d="M85-194c31 0 48 13 60 33l-1-100h32l1 261h-30c-2-10 0-23-3-31C134-8 116 4 85 4 32 4 16-35 15-94c0-66 23-100 70-100zm9 24c-40 0-46 34-46 75 0 40 6 74 45 74 42 0 51-32 51-76 0-42-9-74-50-73" id="G"/><g id="c"><use transform="matrix(0.05925925925925927,0,0,0.05925925925925927,0,0)" xlink:href="#E"/><use transform="matrix(0.05925925925925927,0,0,0.05925925925925927,14.222222222222225,0)" xlink:href="#y"/><use transform="matrix(0.05925925925925927,0,0,0.05925925925925927,26.074074074074076,0)" xlink:href="#F"/><use transform="matrix(0.05925925925925927,0,0,0.05925925925925927,37.92592592592593,0)" xlink:href="#G"/><use transform="matrix(0.05925925925925927,0,0,0.05925925925925927,49.777777777777786,0)" xlink:href="#B"/></g><path d="M30-248c87 1 191-15 191 75 0 78-77 80-158 76V0H30v-248zm33 125c57 0 124 11 124-50 0-59-68-47-124-48v98" id="H"/><path d="M179-190L93 31C79 59 56 82 12 73V49c39 6 53-20 64-50L1-190h34L92-34l54-156h33" id="I"/><path d="M59-47c-2 24 18 29 38 22v24C64 9 27 4 27-40v-127H5v-23h24l9-43h21v43h35v23H59v120" id="J"/><path d="M106-169C34-169 62-67 57 0H25v-261h32l-1 103c12-21 28-36 61-36 89 0 53 116 60 194h-32v-121c2-32-8-49-39-48" id="K"/><path d="M100-194c62-1 85 37 85 99 1 63-27 99-86 99S16-35 15-95c0-66 28-99 85-99zM99-20c44 1 53-31 53-75 0-43-8-75-51-75s-53 32-53 75 10 74 51 75" id="L"/><path d="M117-194c89-4 53 116 60 194h-32v-121c0-31-8-49-39-48C34-167 62-67 57 0H25l-1-190h30c1 10-1 24 2 32 11-22 29-35 61-36" id="M"/><g id="d"><use transform="matrix(0.05925925925925927,0,0,0.05925925925925927,0,0)" xlink:href="#H"/><use transform="matrix(0.05925925925925927,0,0,0.05925925925925927,14.222222222222225,0)" xlink:href="#I"/><use transform="matrix(0.05925925925925927,0,0,0.05925925925925927,24.888888888888893,0)" xlink:href="#J"/><use transform="matrix(0.05925925925925927,0,0,0.05925925925925927,30.81481481481482,0)" xlink:href="#K"/><use transform="matrix(0.05925925925925927,0,0,0.05925925925925927,42.66666666666667,0)" xlink:href="#L"/><use transform="matrix(0.05925925925925927,0,0,0.05925925925925927,54.518518518518526,0)" xlink:href="#M"/></g><path d="M16-82v-28h88v28H16" id="N"/><use transform="matrix(0.05925925925925927,0,0,0.05925925925925927,0,0)" xlink:href="#N" id="e"/><path d="M140-251c81 0 123 46 123 126C263-46 219 4 140 4 59 4 17-45 17-125s42-126 123-126zm0 227c63 0 89-41 89-101s-29-99-89-99c-61 0-89 39-89 99S79-25 140-24" id="O"/><use transform="matrix(0.05925925925925927,0,0,0.05925925925925927,0,0)" xlink:href="#O" id="f"/><path d="M30 0v-248h187v28H63v79h144v27H63v87h162V0H30" id="P"/><g id="g"><use transform="matrix(0.05925925925925927,0,0,0.05925925925925927,0,0)" xlink:href="#P"/><use transform="matrix(0.05925925925925927,0,0,0.05925925925925927,14.222222222222225,0)" xlink:href="#C"/><use transform="matrix(0.05925925925925927,0,0,0.05925925925925927,24.888888888888893,0)" xlink:href="#C"/><use transform="matrix(0.05925925925925927,0,0,0.05925925925925927,35.55555555555556,0)" xlink:href="#B"/><use transform="matrix(0.05925925925925927,0,0,0.05925925925925927,47.40740740740741,0)" xlink:href="#M"/><use transform="matrix(0.05925925925925927,0,0,0.05925925925925927,59.25925925925927,0)" xlink:href="#x"/><use transform="matrix(0.05925925925925927,0,0,0.05925925925925927,69.92592592592594,0)" xlink:href="#w"/><use transform="matrix(0.05925925925925927,0,0,0.05925925925925927,74.60740740740742,0)" xlink:href="#y"/><use transform="matrix(0.05925925925925927,0,0,0.05925925925925927,86.45925925925927,0)" xlink:href="#v"/></g><path d="M240 0l2-218c-23 76-54 145-80 218h-23L58-218 59 0H30v-248h44l77 211c21-75 51-140 76-211h43V0h-30" id="Q"/><path d="M141-36C126-15 110 5 73 4 37 3 15-17 15-53c-1-64 63-63 125-63 3-35-9-54-41-54-24 1-41 7-42 31l-33-3c5-37 33-52 76-52 45 0 72 20 72 64v82c-1 20 7 32 28 27v20c-31 9-61-2-59-35zM48-53c0 20 12 33 32 33 41-3 63-29 60-74-43 2-92-5-92 41zm25-158c8-23 27-35 38-54h36v5l-58 49H73" id="R"/><g id="h"><use transform="matrix(0.05925925925925927,0,0,0.05925925925925927,0,0)" xlink:href="#Q"/><use transform="matrix(0.05925925925925927,0,0,0.05925925925925927,17.718518518518522,0)" xlink:href="#y"/><use transform="matrix(0.05925925925925927,0,0,0.05925925925925927,29.570370370370377,0)" xlink:href="#J"/><use transform="matrix(0.05925925925925927,0,0,0.05925925925925927,35.4962962962963,0)" xlink:href="#B"/><use transform="matrix(0.05925925925925927,0,0,0.05925925925925927,47.348148148148155,0)" xlink:href="#D"/><use transform="matrix(0.05925925925925927,0,0,0.05925925925925927,65.06666666666668,0)" xlink:href="#R"/><use transform="matrix(0.05925925925925927,0,0,0.05925925925925927,76.91851851851852,0)" xlink:href="#J"/><use transform="matrix(0.05925925925925927,0,0,0.05925925925925927,82.84444444444445,0)" xlink:href="#w"/><use transform="matrix(0.05925925925925927,0,0,0.05925925925925927,87.52592592592593,0)" xlink:href="#x"/><use transform="matrix(0.05925925925925927,0,0,0.05925925925925927,98.1925925925926,0)" xlink:href="#y"/></g><path d="M114-163C36-179 61-72 57 0H25l-1-190h30c1 12-1 29 2 39 6-27 23-49 58-41v29" id="S"/><g id="i"><use transform="matrix(0.05925925925925927,0,0,0.05925925925925927,0,0)" xlink:href="#u"/><use transform="matrix(0.05925925925925927,0,0,0.05925925925925927,11.851851851851853,0)" xlink:href="#y"/><use transform="matrix(0.05925925925925927,0,0,0.05925925925925927,23.703703703703706,0)" xlink:href="#S"/><use transform="matrix(0.05925925925925927,0,0,0.05925925925925927,30.75555555555556,0)" xlink:href="#y"/></g><path d="M33 0v-248h34V0H33" id="T"/><g id="j"><use transform="matrix(0.05925925925925927,0,0,0.05925925925925927,0,0)" xlink:href="#T"/><use transform="matrix(0.05925925925925927,0,0,0.05925925925925927,5.9259259259259265,0)" xlink:href="#t"/></g><path d="M63-220v92h138v28H63V0H30v-248h175v28H63" id="U"/><path d="M84 4C-5 8 30-112 23-190h32v120c0 31 7 50 39 49 72-2 45-101 50-169h31l1 190h-30c-1-10 1-25-2-33-11 22-28 36-60 37" id="V"/><g id="k"><use transform="matrix(0.05925925925925927,0,0,0.05925925925925927,0,0)" xlink:href="#U"/><use transform="matrix(0.05925925925925927,0,0,0.05925925925925927,12.97777777777778,0)" xlink:href="#V"/><use transform="matrix(0.05925925925925927,0,0,0.05925925925925927,24.829629629629633,0)" xlink:href="#M"/><use transform="matrix(0.05925925925925927,0,0,0.05925925925925927,36.681481481481484,0)" xlink:href="#G"/><use transform="matrix(0.05925925925925927,0,0,0.05925925925925927,48.53333333333334,0)" xlink:href="#y"/><use transform="matrix(0.05925925925925927,0,0,0.05925925925925927,60.38518518518519,0)" xlink:href="#D"/><use transform="matrix(0.05925925925925927,0,0,0.05925925925925927,78.10370370370372,0)" xlink:href="#B"/><use transform="matrix(0.05925925925925927,0,0,0.05925925925925927,89.95555555555556,0)" xlink:href="#M"/><use transform="matrix(0.05925925925925927,0,0,0.05925925925925927,101.80740740740741,0)" xlink:href="#J"/><use transform="matrix(0.05925925925925927,0,0,0.05925925925925927,107.73333333333333,0)" xlink:href="#L"/><use transform="matrix(0.05925925925925927,0,0,0.05925925925925927,119.58518518518518,0)" xlink:href="#C"/></g><g id="l"><use transform="matrix(0.05925925925925927,0,0,0.05925925925925927,0,0)" xlink:href="#G"/><use transform="matrix(0.05925925925925927,0,0,0.05925925925925927,11.851851851851853,0)" xlink:href="#y"/></g><path d="M177-190C167-65 218 103 67 71c-23-6-38-20-44-43l32-5c15 47 100 32 89-28v-30C133-14 115 1 83 1 29 1 15-40 15-95c0-56 16-97 71-98 29-1 48 16 59 35 1-10 0-23 2-32h30zM94-22c36 0 50-32 50-73 0-42-14-75-50-75-39 0-46 34-46 75s6 73 46 73" id="W"/><path d="M141-36C126-15 110 5 73 4 37 3 15-17 15-53c-1-64 63-63 125-63 3-35-9-54-41-54-24 1-41 7-42 31l-33-3c5-37 33-52 76-52 45 0 72 20 72 64v82c-1 20 7 32 28 27v20c-31 9-61-2-59-35zM48-53c0 20 12 33 32 33 41-3 63-29 60-74-43 2-92-5-92 41zm117-205c-3 23-9 48-36 47-26-1-65-44-74 0H39c4-23 8-48 36-47s64 44 74 0h16" id="X"/><g id="m"><use transform="matrix(0.05925925925925927,0,0,0.05925925925925927,0,0)" xlink:href="#H"/><use transform="matrix(0.05925925925925927,0,0,0.05925925925925927,14.222222222222225,0)" xlink:href="#S"/><use transform="matrix(0.05925925925925927,0,0,0.05925925925925927,21.27407407407408,0)" xlink:href="#L"/><use transform="matrix(0.05925925925925927,0,0,0.05925925925925927,33.125925925925934,0)" xlink:href="#W"/><use transform="matrix(0.05925925925925927,0,0,0.05925925925925927,44.97777777777779,0)" xlink:href="#S"/><use transform="matrix(0.05925925925925927,0,0,0.05925925925925927,52.02962962962964,0)" xlink:href="#y"/><use transform="matrix(0.05925925925925927,0,0,0.05925925925925927,63.881481481481494,0)" xlink:href="#D"/><use transform="matrix(0.05925925925925927,0,0,0.05925925925925927,81.60000000000002,0)" xlink:href="#y"/><use transform="matrix(0.05925925925925927,0,0,0.05925925925925927,93.45185185185187,0)" xlink:href="#z"/><use transform="matrix(0.05925925925925927,0,0,0.05925925925925927,104.11851851851854,0)" xlink:href="#X"/><use transform="matrix(0.05925925925925927,0,0,0.05925925925925927,115.97037037037039,0)" xlink:href="#L"/></g><use transform="matrix(0.05925925925925927,0,0,0.05925925925925927,0,0)" xlink:href="#B" id="n"/><path d="M30 0v-248h33v221h125V0H30" id="Y"/><path d="M100-194c62-1 85 37 85 99 1 63-27 99-86 99S16-35 15-95c0-66 28-99 85-99zM99-20c44 1 53-31 53-75 0-43-8-75-51-75s-53 32-53 75 10 74 51 75zM76-211c8-23 27-35 38-54h36v5l-58 49H76" id="Z"/><g id="o"><use transform="matrix(0.05925925925925927,0,0,0.05925925925925927,0,0)" xlink:href="#Y"/><use transform="matrix(0.05925925925925927,0,0,0.05925925925925927,11.851851851851853,0)" xlink:href="#Z"/><use transform="matrix(0.05925925925925927,0,0,0.05925925925925927,23.703703703703706,0)" xlink:href="#W"/><use transform="matrix(0.05925925925925927,0,0,0.05925925925925927,35.55555555555556,0)" xlink:href="#w"/><use transform="matrix(0.05925925925925927,0,0,0.05925925925925927,40.23703703703704,0)" xlink:href="#x"/><use transform="matrix(0.05925925925925927,0,0,0.05925925925925927,50.90370370370371,0)" xlink:href="#y"/></g><path d="M100-194c63 0 86 42 84 106H49c0 40 14 67 53 68 26 1 43-12 49-29l28 8c-11 28-37 45-77 45C44 4 14-33 15-96c1-61 26-98 85-98zm52 81c6-60-76-77-97-28-3 7-6 17-6 28h103zm-32-149c12 18 30 30 39 51-31 2-38-20-57-30-20 10-27 32-59 30 9-22 29-33 41-51h36" id="aa"/><g id="p"><use transform="matrix(0.05925925925925927,0,0,0.05925925925925927,0,0)" xlink:href="#T"/><use transform="matrix(0.05925925925925927,0,0,0.05925925925925927,5.9259259259259265,0)" xlink:href="#M"/><use transform="matrix(0.05925925925925927,0,0,0.05925925925925927,17.77777777777778,0)" xlink:href="#J"/><use transform="matrix(0.05925925925925927,0,0,0.05925925925925927,23.703703703703706,0)" xlink:href="#B"/><use transform="matrix(0.05925925925925927,0,0,0.05925925925925927,35.55555555555556,0)" xlink:href="#v"/><use transform="matrix(0.05925925925925927,0,0,0.05925925925925927,40.23703703703704,0)" xlink:href="#w"/><use transform="matrix(0.05925925925925927,0,0,0.05925925925925927,44.918518518518525,0)" xlink:href="#W"/><use transform="matrix(0.05925925925925927,0,0,0.05925925925925927,56.77037037037038,0)" xlink:href="#aa"/><use transform="matrix(0.05925925925925927,0,0,0.05925925925925927,68.62222222222223,0)" xlink:href="#M"/><use transform="matrix(0.05925925925925927,0,0,0.05925925925925927,80.47407407407408,0)" xlink:href="#x"/><use transform="matrix(0.05925925925925927,0,0,0.05925925925925927,91.14074074074075,0)" xlink:href="#w"/><use transform="matrix(0.05925925925925927,0,0,0.05925925925925927,95.82222222222224,0)" xlink:href="#y"/></g><path d="M101-234c-31-9-42 10-38 44h38v23H63V0H32v-167H5v-23h27c-7-52 17-82 69-68v24" id="ab"/><g id="q"><use transform="matrix(0.05925925925925927,0,0,0.05925925925925927,0,0)" xlink:href="#t"/><use transform="matrix(0.05925925925925927,0,0,0.05925925925925927,14.222222222222225,0)" xlink:href="#S"/><use transform="matrix(0.05925925925925927,0,0,0.05925925925925927,21.27407407407408,0)" xlink:href="#J"/><use transform="matrix(0.05925925925925927,0,0,0.05925925925925927,27.200000000000006,0)" xlink:href="#w"/><use transform="matrix(0.05925925925925927,0,0,0.05925925925925927,31.881481481481487,0)" xlink:href="#ab"/><use transform="matrix(0.05925925925925927,0,0,0.05925925925925927,37.80740740740741,0)" xlink:href="#w"/><use transform="matrix(0.05925925925925927,0,0,0.05925925925925927,42.488888888888894,0)" xlink:href="#x"/><use transform="matrix(0.05925925925925927,0,0,0.05925925925925927,53.155555555555566,0)" xlink:href="#w"/><use transform="matrix(0.05925925925925927,0,0,0.05925925925925927,57.83703703703705,0)" xlink:href="#y"/><use transform="matrix(0.05925925925925927,0,0,0.05925925925925927,69.6888888888889,0)" xlink:href="#v"/></g><g id="r"><use transform="matrix(0.05925925925925927,0,0,0.05925925925925927,0,0)" xlink:href="#Q"/><use transform="matrix(0.05925925925925927,0,0,0.05925925925925927,17.718518518518522,0)" xlink:href="#y"/><use transform="matrix(0.05925925925925927,0,0,0.05925925925925927,29.570370370370377,0)" xlink:href="#x"/><use transform="matrix(0.05925925925925927,0,0,0.05925925925925927,40.23703703703704,0)" xlink:href="#K"/><use transform="matrix(0.05925925925925927,0,0,0.05925925925925927,52.088888888888896,0)" xlink:href="#w"/><use transform="matrix(0.05925925925925927,0,0,0.05925925925925927,56.77037037037038,0)" xlink:href="#M"/><use transform="matrix(0.05925925925925927,0,0,0.05925925925925927,68.62222222222223,0)" xlink:href="#B"/></g><g id="s"><use transform="matrix(0.05925925925925927,0,0,0.05925925925925927,0,0)" xlink:href="#Y"/><use transform="matrix(0.05925925925925927,0,0,0.05925925925925927,11.851851851851853,0)" xlink:href="#B"/><use transform="matrix(0.05925925925925927,0,0,0.05925925925925927,23.703703703703706,0)" xlink:href="#y"/><use transform="matrix(0.05925925925925927,0,0,0.05925925925925927,35.55555555555556,0)" xlink:href="#S"/><use transform="matrix(0.05925925925925927,0,0,0.05925925925925927,42.60740740740741,0)" xlink:href="#M"/><use transform="matrix(0.05925925925925927,0,0,0.05925925925925927,54.45925925925926,0)" xlink:href="#w"/><use transform="matrix(0.05925925925925927,0,0,0.05925925925925927,59.140740740740746,0)" xlink:href="#M"/><use transform="matrix(0.05925925925925927,0,0,0.05925925925925927,70.9925925925926,0)" xlink:href="#W"/></g></defs></g></svg>